<?xml version="1.0" encoding="UTF-8"?>
<!DOCTYPE svg PUBLIC "-//W3C//DTD SVG 1.1//EN" "http://www.w3.org/Graphics/SVG/1.1/DTD/svg11.dtd">
<!-- Creator: CorelDRAW 2021 (64 Bit) -->
<svg xmlns="http://www.w3.org/2000/svg" xml:space="preserve" width="3.8501mm" height="3.7598mm" version="1.1" style="shape-rendering:geometricPrecision; text-rendering:geometricPrecision; image-rendering:optimizeQuality; fill-rule:evenodd; clip-rule:evenodd"
viewBox="0 0 29251 28565"
 xmlns:xlink="http://www.w3.org/1999/xlink"
 xmlns:xodm="http://www.corel.com/coreldraw/odm/2003">
 <defs>
  <style type="text/css">
   <![CDATA[
    .fil0 {fill:#FEFEFE}
   ]]>
  </style>
 </defs>
 <g id="Camada_x0020_1">
  <metadata id="CorelCorpID_0Corel-Layer"/>
  <g id="_2839205623776">
   <g id="_2176296986352">
    <path class="fil0" d="M0 14119c0,2452 219,3758 1020,6004 68,191 128,290 219,468 96,191 135,321 227,515 473,992 1301,2279 2062,3078 150,158 196,248 341,401 255,264 484,481 744,741 496,496 1045,941 1636,1333 601,397 1173,762 1822,1089 443,223 1782,817 2266,817 407,0 686,-370 686,-799l0 -2686c-345,8 -555,114 -971,114 -1766,0 -3235,-91 -3983,-1843 -359,-840 -841,-1662 -1628,-2143 -226,-139 -533,-384 -558,-698 729,-487 1868,191 2386,698 693,679 1225,2316 2851,2241 697,-33 1219,-14 1776,-324 338,-188 166,-779 651,-1520 128,-196 326,-286 391,-524 -426,-36 -1014,-147 -1424,-233 -1519,-313 -2828,-971 -3814,-2127 -410,-481 -680,-1058 -896,-1675 -749,-2139 -739,-4663 570,-6557 483,-698 441,-305 240,-1162 -219,-930 1,-3268 470,-3268 844,0 1426,279 2122,562 1004,410 1577,1020 1943,940 868,-188 1636,-426 2560,-419 434,5 672,-85 1141,-58 1023,58 2117,169 3108,437 227,62 251,104 424,14 708,-368 758,-556 1927,-1046 732,-307 938,-433 1967,-433 213,915 456,758 456,2456 0,296 -33,501 -89,766 -41,191 -190,546 -174,653 28,214 2531,2437 988,7069 -562,1690 -1788,2805 -3406,3449 -785,315 -1918,608 -2798,629 374,558 648,593 843,1442 315,1368 -55,4655 188,5523 93,341 365,517 739,517 372,0 1788,-639 2115,-799 479,-236 991,-492 1420,-810l1257 -913c550,-437 1040,-931 1537,-1433 152,-154 193,-244 343,-401 808,-848 1561,-2022 2072,-3069 858,-1757 1483,-3863 1483,-5884 0,-1945 -136,-3852 -849,-5604 -346,-854 -688,-1608 -1132,-2409l-705 -1066c-504,-716 -1023,-1336 -1643,-1957 -1337,-1340 -3034,-2451 -4787,-3153 -233,-93 -458,-175 -661,-252 -2496,-938 -5670,-1040 -8271,-407 -1375,334 -2577,848 -3809,1504 -1110,589 -2177,1424 -3061,2308 -871,873 -1703,1908 -2325,2987 -220,381 -403,743 -611,1159 -697,1380 -1390,3706 -1390,5750l-5 8 -2 3z"/>
   </g>
  </g>
 </g>
</svg>
