<?xml version="1.0" encoding="UTF-8"?>
<!DOCTYPE svg PUBLIC "-//W3C//DTD SVG 1.1//EN" "http://www.w3.org/Graphics/SVG/1.1/DTD/svg11.dtd">
<!-- Creator: CorelDRAW 2021 (64 Bit) -->
<svg xmlns="http://www.w3.org/2000/svg" xml:space="preserve" width="3.6196mm" height="3.6158mm" version="1.1" style="shape-rendering:geometricPrecision; text-rendering:geometricPrecision; image-rendering:optimizeQuality; fill-rule:evenodd; clip-rule:evenodd"
viewBox="0 0 17401 17383"
 xmlns:xlink="http://www.w3.org/1999/xlink"
 xmlns:xodm="http://www.corel.com/coreldraw/odm/2003">
 <defs>
  <style type="text/css">
   <![CDATA[
    .fil0 {fill:#FEFEFE}
   ]]>
  </style>
 </defs>
 <g id="Camada_x0020_1">
  <metadata id="CorelCorpID_0Corel-Layer"/>
  <g id="_2839199355216">
   <g id="_2176486250336">
    <path class="fil0" d="M0 1159l0 15064c0,165 64,342 121,458 189,378 634,702 1057,702l15026 0c146,0 390,-75 489,-129 58,-32 141,-81 189,-119 331,-262 519,-594 519,-1046l0 -14794c0,-556 -280,-920 -696,-1159 -96,-55 -349,-136 -501,-136l-15026 0c-570,0 -1179,572 -1179,1159l1 0 0 0zm2574 13649l2587 6 0 -8300 -2584 0 -3 8294 0 0zm6678 -7160l0 -1135 -2472 0 -5 8300 2578 0 0 -4075c0,-1258 280,-2158 1579,-2158 1396,0 1304,1505 1304,2467 0,1251 0,2505 0,3757 178,29 2228,9 2583,9l0 -4752c0,-747 -106,-1676 -389,-2281 -289,-620 -694,-1032 -1386,-1280 -650,-234 -1632,-264 -2296,-41 -500,168 -884,432 -1207,802 -123,142 -227,360 -290,386l0 1 0 0zm-5598 -5240c-755,117 -1413,805 -1266,1712 120,750 815,1380 1705,1249 753,-111 1378,-815 1257,-1697 -102,-741 -813,-1399 -1695,-1264l-1 0z"/>
   </g>
  </g>
 </g>
</svg>
